<svg width="19" height="18" viewBox="0 0 19 18" fill="none" xmlns="http://www.w3.org/2000/svg">
<path d="M0.5 15C0.5 15.55 0.95 16 1.5 16H6.5V14H1.5C0.95 14 0.5 14.45 0.5 15ZM0.5 3C0.5 3.55 0.95 4 1.5 4H10.5V2H1.5C0.95 2 0.5 2.45 0.5 3ZM10.5 17V16H17.5C18.05 16 18.5 15.55 18.5 15C18.5 14.45 18.05 14 17.5 14H10.5V13C10.5 12.45 10.05 12 9.5 12C8.95 12 8.5 12.45 8.5 13V17C8.5 17.55 8.95 18 9.5 18C10.05 18 10.5 17.55 10.5 17ZM4.5 7V8H1.5C0.95 8 0.5 8.45 0.5 9C0.5 9.55 0.95 10 1.5 10H4.5V11C4.5 11.55 4.95 12 5.5 12C6.05 12 6.5 11.55 6.5 11V7C6.5 6.45 6.05 6 5.5 6C4.95 6 4.5 6.45 4.5 7ZM18.5 9C18.5 8.45 18.05 8 17.5 8H8.5V10H17.5C18.05 10 18.5 9.55 18.5 9ZM13.5 6C14.05 6 14.5 5.55 14.5 5V4H17.5C18.05 4 18.5 3.55 18.5 3C18.5 2.45 18.05 2 17.5 2H14.5V1C14.5 0.45 14.05 0 13.5 0C12.95 0 12.5 0.45 12.5 1V5C12.5 5.55 12.95 6 13.5 6Z" fill="white"/>
</svg>
